<?xml version="1.0" encoding="UTF-8"?><svg id="a" xmlns="http://www.w3.org/2000/svg" viewBox="0 0 1080 1080"><path d="M501.6,672.7c-98.6-8.3-170.8,35.8-229.4,111.3,1.1-12,1.5-23.3,3.1-34.5,3.4-24.3,11.2-46.9,26.1-66.8,19.3-25.8,45.1-41.1,76.8-45.7,44.5-6.5,84.5,4.9,119.9,32.5,1,.8,1.9,1.7,3.5,3.2Z" fill="#c36" stroke-width="0"/><path d="M511.8,658.9c-21.1-24.3-47.7-37.4-76.2-46.5-29.7-9.5-60.1-16.8-90.2-25.3-19.8-5.6-39.8-11.2-56.6-23.8-7.4-5.6-13.8-12.2-16.9-21.4-5-14.7,4.6-28.8,20-28.1,25.8,1.1,50.8,6.7,75.3,14.7,35.8,11.7,69,28.8,97,54.4,22.4,20.4,40.2,44.3,47.7,76Z" fill="#c36" stroke-width="0"/><path d="M465.6,566c-13.4-8.9-27.1-19-41.7-27.4-32.5-18.6-67.6-30.9-104.3-38.7-16.6-3.5-33.3-7.3-47.7-17-12.9-8.8-18.9-24.7-14.6-38.9,3.7-12.4,13.7-18.5,26.5-16.1,29.4,5.5,57.1,15.8,83.9,29.2,40.4,20.2,67.8,52.7,88.6,91.7,3.2,6.1,6.6,12.1,9.4,17.1Z" fill="#c36" stroke-width="0"/><path d="M414.3,357c-12.9-2.1-17.1,3-18.9,16.9-.6,4.6,0,9.3,0,14-6.8-6-13.6-12.3-20.7-18.4-22.9-19.3-49.9-30.8-77.9-40.3-11.8-4.1-23.8-7.8-35.2-12.9-9.9-4.5-16.8-12.4-19.5-23.5-3.1-13,6-22.7,19-19.8,48.1,10.5,91,31.9,129.2,62.9,8.3,6.7,16.1,14.1,24.1,21.1Z" fill="#c36" stroke-width="0"/><path d="M421.4,475.3c-24.9-21-51.2-38.1-81.2-49.3-16.8-6.3-33.8-12.1-50.3-19.1-15.2-6.4-25.9-17.5-28.6-34.3-1-5.9-.4-12.4,1.2-18.2,2.4-8.5,10-11.9,20.2-9.2,46.4,12,85.6,35.1,114.5,74.1,9.4,12.7,14.5,27.5,19.4,42.3,1.5,4.4,3,8.7,4.7,13.8Z" fill="#c36" stroke-width="0"/><path d="M523.2,630.3c-6.7-17.5-18-32.1-28.3-47.3-29.9-44-50.7-92.3-66.7-142.8-4.6-14.6-9.6-29.1-13.9-43.8-1.6-5.3-3.2-12.4,2-15.8,5.4-3.5,10.2,2.3,14.1,5.7,21,18,36.3,40.5,49.3,64.6,19.3,35.6,30.8,74,38.7,113.5,4.4,21.6,6.1,43.5,4.7,65.7Z" fill="#c36" stroke-width="0"/><path d="M687.2,358.1c-.4-6.5-1.5-12.9-2.2-19.3-.5,0-1.1,0-1.6.1,0,7.9.7,15.9-.1,23.7-2.8,27.3-13.3,52.3-25,76.8-12.3,25.6-29.2,48.2-46.1,70.8-17.3,23.1-29.8,48.5-36.2,76.5,6.2-10.9,11.7-22.5,19-32.9,17.3-24.6,35.6-48.6,53.2-73,26.4-36.6,42-76.7,38.9-122.7Z" fill="#c36" stroke-width="0"/><path d="M856.1,537.1c-.6-1-1.3-2-1.9-3l-.2-.3c-2.4-3.6-4.8-7.2-7.2-10.8-5.3-8-10.9-16.4-15.8-24.7-4.2-7.1-5.4-11.7-4-15.4,7.3-20.3,8.9-42,4.6-64.5-8.9-47.2-35.5-82.4-79.1-104.5-23.6-12-51.3-18.2-84.6-19.1-2.2,0-4.5,0-6.7,0-38.4,0-72.7,10.1-101.9,30.1-22.2,15.2-40.9,36.4-57,64.8-8.7-14-18.2-27.5-28.6-40.5-35.1-44-76.7-78.1-123.6-101.2-42.8-21.1-82.8-33.2-122.3-36.9-3.6-.3-7.2-.5-10.8-.5-7.5,0-14.7.7-21.5,2.2-11.3,2.4-20.2,8.4-25.9,17.5-6.5,10.3-8.2,23.6-4.8,37.4,3.3,13.4,8.8,25.9,14.1,38,1,2.3,2,4.5,3,6.8,10.4,24,14.1,42.8,12,61-1.5,13.5-3.6,27.2-5.6,40.5-1.2,7.9-2.4,15.8-3.5,23.7-3.3,23.5-5.7,51.2.7,78.9,8.1,35.1,25.2,62.7,50.9,82,22.9,17.2,49.2,24.3,67.9,28.2-21.1,13.2-38.8,32.3-53.8,57.8-13.6,23.1-21.9,48.9-24.7,76.6-2.1,20.4-3.2,47.3,6.5,74.3,9.6,26.5,24.9,43.9,47,53.1,6.9,2.9,14,4.3,21,4.3s12.5-1.2,18.6-3.5c5.1-1.9,12.6-7.9,12.3-16.1,0-5.3-2.3-10.8-6.1-15.2-3.6-4.3-8.4-5.5-11.4-6.2l-.7-.2c-9.7-2.7-14.4-8.2-15.4-17.9-1.1-10.6.7-20.6,5-29.8,12.1-25.2,32.7-43.5,49.3-56.7,36.2-28.6,69.4-43.4,104.6-46.7,2.3-.2,4.8-.3,7.4-.3,6.5,0,13.6.7,21.1,2.1,1,.2,1.6.5,1.8.7.2.3.6,1.5,0,5.6-5.4,38.1-17.4,61.7-17.5,61.9-.1.2-10.7,20.4-27,42.1-4.4,5.9-5.1,13.6-1.8,20.2,1.6,3.3,4.1,6,7.1,7.8,3,1.8,6.5,2.9,10.2,2.9s1.3,0,1.9,0l14.6-1.4c12.9-1.3,24.5-7.1,32.9-16.1,1.8,1.2,3.9,1.9,6.1,2.2,2.3.3,4.6.4,6.9.4s6.2-.3,9.2-.8c19.7-3.3,33.3-17.1,41.5-25.3l2.3-2.3c5.7-5.6,9.4-10.2,10.3-11.3,10.6-12.7,19-27.5,24.9-44.2.3,13.2,3.3,25.9,9.1,36.4,2.2,4,6.3,6.3,10.6,6.3s2-.1,3-.4c5.4-1.4,9.1-6.2,9.1-11.7s0-4.5-.1-6.7c-.1-4.4-.2-8.5.2-12.2.6-5.4,2-11.2,4-17.1,8.2-24.5,27-39.2,50.3-39.2s2.4,0,3.7.1c10.1.6,20.4,3.1,31.2,5.7l.8.2c3,.7,5.9,1.5,8.8,2.3,10.2,2.7,20.8,5.5,32.5,5.5s4.1,0,6.1-.3c12.3-1.1,22.2-4.5,30.3-10.6,14.4-10.8,15.7-23.3,14.2-31.9-.7-4.2-1.5-8.7-2.7-13.3-.2-.6-.2-1.1-.3-1.4.2-.1.4-.3.7-.6,11.7-8,15.1-20.6,9.2-32.2,8.9-8.9,10.6-20.5,4.6-32.1,3.3-1.8,6.7-3.8,10.1-5.9,19.5-12.1,23.6-28.8,12-48.6ZM507.2,803.8c-1.6,4.2-3.8,8.1-6.6,11.4h0c-6.7,8.3-16.5,13.7-27.4,14.8h-.3s-14.2,1.4-14.2,1.4c-6.3.6-10.3-6.5-6.5-11.5,17.1-22.8,28-43.8,28-43.8,0,0,13-24.9,18.8-65.8.5-3.7,1.2-10.5-2.9-15.2-2-2.3-4.9-4-8.7-4.7-10.4-2-21.3-2.9-31.8-2-42.4,3.9-78.4,23.5-111,49.2-21.3,16.8-40.8,35.8-52.8,60.9-5.5,11.5-7.4,23.7-6.2,36.2,1.5,14.8,9.7,24.3,24.2,28.3,2.1.6,4.8,1,6.1,2.5,1.8,2.1,3.2,5.1,3.3,7.7,0,1.5-2.6,3.8-4.5,4.6-10.3,3.9-20.6,3.5-30.7-.7-21-8.7-32.9-25.4-40.3-46-8.1-22.5-8.2-45.6-5.8-69,2.6-25.6,10.1-49.6,23.1-71.6,18.8-31.9,44.1-56.4,80.4-67.6,1.8-.6,3.7-1.1,6.4-1.9-13.5-2-26.1-3.3-38.5-5.8-23.5-4.6-46.1-11.9-65.6-26.5-25.2-18.9-39.4-44.7-46.4-75-5.7-24.8-3.9-49.7-.5-74.6,3-21.5,6.8-43,9.2-64.5,2.7-23.6-3.7-45.7-12.9-67.2-6.1-14-12.8-28.1-16.4-42.8-4.3-17.9,1.8-36.1,21.5-40.2,9.2-2,19.2-2.3,28.6-1.5,41.7,3.9,80.7,17.3,118.1,35.7,47.4,23.4,86.7,56.7,119.5,97.9,13,16.3,24.6,33.4,34.9,51.1,19.5,33.8,33.9,70.1,43.3,108.7,4.7,19.4,7.3,39.4,8.7,59.4,1.4,20.8,1.5,41.9-.1,62.6-2.3,29.5-8.3,54.3-19,89.2-8.2,26.8-15.5,50.8-25,76.2ZM837.7,575.4c-4.2,2.6-8.4,4.9-12.7,7.3-3.5,1.9-5.1,6.2-3.6,9.9.6,1.4,1,2.9,1.6,4.3,3.9,7.5,2.8,14-3.8,19.6-3.6,3.1-5.1,6.1-1.8,11,4.6,6.9,3,13.5-4.3,18.5-5.8,4-7,8.7-5.3,15.1,1.1,4,1.8,8.1,2.5,12.1,1.5,8.9-2.9,15.2-9.5,20.3-7.1,5.3-15.3,7.4-24.1,8.2-15.2,1.4-29.2-3.8-43.5-7.2-11.2-2.7-22.7-5.5-34.1-6.2-33.9-2.1-57,19.9-66.2,47.3-2.1,6.3-3.8,13-4.5,19.6-.8,6.6-.2,13.4-.2,20.3-17.2-31.5-5.4-90.4,38.5-102.4-15.2-8.9-29.6-18.3-31.3-39,14.6,12.6,31.5,20.1,48.4,27.4,25.8,11.3,53.1,18,80.5,24,5.4,1.2,11.3.8,16.9.2,10.3-1.2,15.6-9.6,13.3-20.2-.7-3.5-1.5-6.9-2.2-10.4-1.3-6.4,1.3-10.7,6.8-14,3-1.8,5.4-4.7,8-7.1-2.8-2.5-5.1-5.7-8.3-7.4-6.6-3.5-13.6-6.2-21.4-9.7,6.2-2.1,11.9-3.6,17.3-5.8,5.3-2.2,10.5-4.9,15.3-7.9,3.5-2.1,3.7-5,.9-8.5-5-6.3-9.5-12.9-14-19,2.9-.4,5.6,0,7.7-1.1,8.6-4.2,17-8.7,25.3-13.3,3.6-2,4.1-4.8,1.9-8.5-6.8-11.2-13.5-22.5-20.2-33.8-8.4-14-12.7-29-11.4-45.5,3-38.9-11.5-72.3-33.2-103.3-3.1-4.5-6.5-8.7-9.8-13,0-.1-.4,0-.6,0,3.9,41-8.2,77.2-34.4,108.4-14.5,17.3-30.5,33.4-46.1,49.7-23.8,24.9-43.8,52.2-52.5,86-4.9,19-8.1,38.4-11,57.8-3.8,25.3-5.9,50.9-13.5,75.7-5.5,18.1-13.9,33.7-25,46.8,0,0-3.4,4.5-9.4,10.3-7.7,7.6-19.8,21.4-37.3,24.3-3,.5-7.3.9-12.6.3,0,0-.1,0-.2,0-1.6-.3-2.6-2.1-1.9-3.6,14.1-33.5,23.5-62.9,29.7-85.6,7-25.5,13.6-49.8,17.1-82.8,2.7-25.6,3.1-51.2.7-76.7-5.3-56.9-19.7-111.2-48.7-161.1-.4-.8-.8-1.8-1-2.8h0c-.3-1.6-.3-3.2.3-4.2,13.8-25.4,31.2-48,55.3-64.5,30.5-20.9,64.7-28.9,101.3-27.9,27.6.8,54.7,5.3,79.5,17.8,39.6,20.1,64.4,51.9,72.7,95.9,3.8,19.8,2.8,39.1-4.1,58.2-3.3,9.2.4,18,5,25.7,7.2,12.3,15.4,24,23.2,35.9.6.9,1.3,1.9,1.8,2.8,8.3,14.1,6,23.5-8,32.1ZM787.1,520.8c-8.7,10.4-39.9,10.1-53.3-13.2,5.2,1.7,10,3.5,15,4.8,2.9.8,5.9.9,8.8,1.2,6.2.7,9.9-2.6,12.1-8,1.4-3.4,2.5-6.9,4.9-10.1-.2,3.6-.6,7.2-.7,10.8-.3,10.5,2.4,13.5,13.2,14.5ZM786.4,470.4c-2.3,3.6-5.2,6.8-8,10.3-8.6-8.8-16.2-10.3-26.5-5-8.5,4.3-16.5,9.6-25.9,15.1,10.5-14.5,19-29.6,38.2-31.7,7.8-.9,14.7,2.3,21,6.7,1,.7,1.7,3.7,1.1,4.7Z" fill="#c36" stroke-width="0"/></svg>