<?xml version="1.0" encoding="UTF-8"?><svg id="a" xmlns="http://www.w3.org/2000/svg" viewBox="0 0 1080 1080"><path d="M543.6,666.9c1.7-21.5,1.6-43.3.1-64.9-1.4-20.6-4.1-41.4-9-61.5-15-60.9-41.7-116.3-81-165.5-34-42.6-74.7-77.2-123.8-101.4-38.7-19.1-79.1-32.9-122.3-37-9.8-.9-20.1-.5-29.6,1.5-20.4,4.3-26.8,23.2-22.3,41.7,3.7,15.3,10.7,29.8,17,44.3,9.6,22.3,16.2,45.1,13.4,69.6-2.5,22.4-6.4,44.5-9.5,66.9-3.6,25.7-5.4,51.5.5,77.2,7.2,31.3,21.9,58.1,48.1,77.7,20.2,15.1,43.6,22.6,67.9,27.4,12.8,2.5,25.8,3.9,39.8,6-2.8.9-4.7,1.4-6.6,2-37.6,11.6-63.8,36.9-83.3,70-13.5,22.9-21.3,47.7-23.9,74.2-2.5,24.2-2.3,48.2,6,71.5,7.7,21.3,20,38.6,41.7,47.7,10.5,4.3,21.2,4.7,31.8.7,2-.8,4.7-3.1,4.7-4.7,0-2.7-1.6-5.8-3.4-8-1.3-1.6-4.1-2-6.3-2.6-15-4.2-23.5-14.1-25-29.4-1.3-12.9.7-25.5,6.4-37.5,12.4-26,32.6-45.7,54.6-63.1,33.8-26.6,71-46.9,114.9-51,10.9-1,22.2,0,33,2,3.9.8,6.9,2.5,9,4.9,4.3,4.9,3.5,11.9,3,15.7-6,42.4-19.4,68.2-19.4,68.2,0,0-11.3,21.7-29,45.3-3.9,5.2.3,12.6,6.7,11.9l14.7-1.4h.3c15.9-1.7,29.6-12.2,35.2-27.2,9.8-26.3,17.4-51.2,25.9-78.9,11.1-36.2,17.3-61.9,19.6-92.4ZM223.4,308.9c-3.2-13.4,6.2-23.5,19.7-20.6,49.9,10.9,94.3,33,133.8,65.1,8.6,7,16.7,14.6,25,21.9-13.4-2.2-17.7,3.1-19.6,17.5-.6,4.8-.1,9.7-.1,14.5-7-6.2-14.1-12.8-21.5-19.1-23.7-20-51.7-31.9-80.7-41.8-12.3-4.2-24.7-8.1-36.4-13.3-10.3-4.6-17.4-12.8-20.2-24.3ZM404.4,483.7c1.5,4.5,3.1,9,4.8,14.3-25.8-21.7-53.1-39.4-84.1-51-17.4-6.5-35-12.6-52.1-19.8-15.7-6.6-26.8-18.1-29.6-35.5-1-6.1-.4-12.9,1.3-18.9,2.5-8.8,10.4-12.3,21-9.6,48,12.4,88.7,36.3,118.6,76.7,9.8,13.2,15,28.5,20.1,43.8ZM239.2,465.5c3.9-12.9,14.2-19.2,27.4-16.7,30.5,5.7,59.2,16.4,86.9,30.3,41.9,20.9,70.3,54.5,91.8,95,3.3,6.3,6.8,12.5,9.7,17.7-13.8-9.2-28-19.7-43.2-28.4-33.7-19.3-70-32-108-40-17.2-3.7-34.5-7.5-49.4-17.6-13.4-9.1-19.6-25.6-15.1-40.3ZM254.7,817.7c1.1-12.4,1.6-24.1,3.3-35.7,3.6-25.1,11.6-48.6,27-69.2,20-26.7,46.8-42.6,79.5-47.4,46.1-6.7,87.5,5.1,124.2,33.7,1.1.8,2,1.8,3.6,3.3-102.1-8.6-176.9,37-237.6,115.3ZM423.9,639.9c-30.8-9.8-62.3-17.4-93.4-26.2-20.5-5.8-41.2-11.6-58.6-24.7-7.7-5.8-14.3-12.7-17.5-22.1-5.2-15.2,4.7-29.9,20.7-29.2,26.7,1.2,52.7,6.9,78,15.2,37.1,12.2,71.5,29.9,100.4,56.4,23.2,21.2,41.6,45.9,49.4,78.8-21.9-25.2-49.4-38.8-79-48.2ZM514.6,658.5c-6.9-18.1-18.7-33.2-29.4-49-30.9-45.6-52.5-95.6-69.1-147.9-4.8-15.1-9.9-30.1-14.4-45.3-1.6-5.5-3.3-12.8,2.1-16.3,5.6-3.6,10.5,2.4,14.6,5.9,21.8,18.6,37.6,42,51.1,67,20,36.9,31.9,76.7,40.1,117.6,4.6,22.4,6.3,45.1,4.9,68Z" fill="#fff" stroke-width="0"/><path d="M848.7,568.4c-.6-1-1.3-2-1.9-2.9-8.1-12.4-16.6-24.5-24.1-37.2-4.7-8-8.6-17.1-5.1-26.6,7.1-19.8,8.1-39.8,4.2-60.3-8.6-45.6-34.3-78.5-75.3-99.3-25.7-13-53.7-17.7-82.4-18.5-37.9-1.1-73.3,7.3-105,28.9-25,17.1-43,40.5-57.3,66.8-1,1.8-.4,5.3.7,7.2,30.1,51.6,44.9,107.9,50.5,166.8,2.5,26.4,2,52.9-.8,79.4-3.6,34.2-10.4,59.4-17.7,85.8-6.5,23.5-16.2,54-30.8,88.7-.7,1.7.4,3.6,2.2,3.8,5.6.7,10,.2,13.1-.3,18.2-3.1,30.7-17.4,38.7-25.2,6.2-6.1,9.7-10.7,9.7-10.7,11.5-13.6,20.1-29.7,25.8-48.5,7.8-25.6,10-52.1,14-78.4,3.1-20.1,6.3-40.3,11.4-59.9,9.1-35,29.8-63.3,54.4-89.1,16.2-16.9,32.7-33.6,47.8-51.5,27.1-32.3,39.6-69.8,35.6-112.2.2,0,.5,0,.6.1,3.4,4.5,6.9,8.8,10.1,13.5,22.5,32.1,37.5,66.7,34.4,107-1.3,17.1,3.1,32.6,11.9,47.2,7,11.7,13.9,23.4,21,35,2.3,3.8,1.8,6.7-1.9,8.8-8.7,4.7-17.4,9.4-26.2,13.8-2.2,1.1-5,.8-8,1.2,4.6,6.3,9.3,13.1,14.5,19.7,2.9,3.6,2.6,6.6-1,8.8-5.1,3.1-10.4,5.9-15.9,8.1-5.6,2.3-11.5,3.9-17.9,6,8.1,3.6,15.4,6.4,22.2,10.1,3.3,1.8,5.7,5.1,8.6,7.7-2.7,2.5-5.2,5.5-8.3,7.3-5.8,3.4-8.5,7.8-7.1,14.5.7,3.6,1.5,7.2,2.2,10.8,2.4,11-3.1,19.6-13.8,20.9-5.8.7-11.9,1.1-17.5-.2-28.4-6.2-56.6-13.2-83.3-24.9-17.5-7.6-35-15.4-50.2-28.4,1.8,21.4,16.7,31.2,32.4,40.4-45.4,12.5-57.6,73.4-39.8,106.1,0-7.1-.6-14.2.2-21,.8-6.8,2.5-13.7,4.7-20.3,9.5-28.3,33.4-51.1,68.6-49,11.9.7,23.7,3.6,35.3,6.4,14.9,3.5,29.4,8.8,45.1,7.4,9.1-.8,17.6-3,25-8.5,6.9-5.2,11.4-11.8,9.9-21-.7-4.2-1.5-8.4-2.6-12.6-1.8-6.5-.6-11.4,5.5-15.6,7.5-5.2,9.2-12,4.4-19.2-3.4-5.1-1.9-8.2,1.9-11.4,6.8-5.8,7.9-12.5,3.9-20.3-.7-1.4-1.1-3-1.7-4.4-1.6-3.8.1-8.2,3.7-10.2,4.4-2.5,8.8-4.9,13.2-7.5,14.5-9,16.8-18.6,8.2-33.3ZM644.2,503.6c-18.3,25.3-37.2,50.1-55.1,75.6-7.5,10.8-13.3,22.8-19.7,34.1,6.6-29,19.6-55.3,37.5-79.2,17.5-23.4,35-46.9,47.8-73.4,12.1-25.3,22.9-51.2,25.8-79.5.9-8.1.1-16.3.1-24.5.6,0,1.1-.1,1.7-.1.8,6.6,1.9,13.3,2.3,20,3.2,47.6-13,89.2-40.3,127.1Z" fill="#fff" stroke-width="0"/><path d="M786.1,488c-6.5-4.4-13.7-7.8-21.8-6.9-19.9,2.2-28.7,17.9-39.6,32.9,9.7-5.7,18-11.1,26.8-15.6,10.6-5.4,18.5-3.9,27.4,5.2,2.9-3.6,5.9-7,8.2-10.7.7-1,0-4.2-1.1-4.9Z" fill="#fff" stroke-width="0"/><path d="M775,518.9c-2.4,3.4-3.6,7-5,10.5-2.3,5.5-6.1,9-12.5,8.2-3.1-.3-6.2-.4-9.2-1.2-5.1-1.4-10.2-3.2-15.5-5,13.9,24.1,46.3,24.4,55.2,13.7-11.2-1.1-14-4.2-13.7-15.1.1-3.7.5-7.4.7-11.1Z" fill="#fff" stroke-width="0"/></svg>