<?xml version="1.0" encoding="UTF-8"?><svg id="a" xmlns="http://www.w3.org/2000/svg" xmlns:xlink="http://www.w3.org/1999/xlink" viewBox="0 0 1080 1080"><defs><linearGradient id="b" x1="318.3" y1="609" x2="318.3" y2="275.9" gradientUnits="userSpaceOnUse"><stop offset="0" stop-color="#e5a4cb"/><stop offset=".1" stop-color="rgba(229,164,203,.8)" stop-opacity=".8"/><stop offset=".6" stop-color="rgba(229,164,203,.4)" stop-opacity=".4"/><stop offset=".9" stop-color="rgba(229,164,203,.1)" stop-opacity=".1"/><stop offset="1" stop-color="#e5a4cb" stop-opacity="0"/></linearGradient><linearGradient id="c" x1="598" y1="519.7" x2="598" y2="309.7" gradientUnits="userSpaceOnUse"><stop offset="0" stop-color="#e5a4cb"/><stop offset=".1" stop-color="rgba(229,164,203,.8)" stop-opacity=".8"/><stop offset=".6" stop-color="rgba(229,164,203,.4)" stop-opacity=".4"/><stop offset=".9" stop-color="rgba(229,164,203,.1)" stop-opacity=".1"/><stop offset="1" stop-color="#e5a4cb" stop-opacity="0"/></linearGradient></defs><path d="M483.7,527.9c-2,26.1-7.3,48-16.8,78.8-12.4,40.6-22.6,74.1-43.9,118.9-6.5,13.6-14,29.4-22.9,46h-53.3c2.8-4.7,5.5-9.5,8.3-14.3-2.8-.3-3.4-.6-3.8-.4-13.4,4-26.3,8.8-38.5,14.7h-49.2c9.6-5.4,19.2-10.4,28.8-15,34.7-16.9,43.4-17.5,54.3-22.9,0,0,5.2-2.7,10.3-6.1,35.7-23.6,64-78,64-78,0,0,11.5-22,16.6-58.2.5-3.3,1.1-9.3-2.5-13.4-1.8-2-4.3-3.5-7.7-4.1-9.2-1.7-18.8-2.6-28.1-1.7-37.4,3.5-69.2,20.8-98,43.5-18.8,14.8-36,31.6-46.6,53.8-4.9,10.2-6.5,20.9-5.5,32,1.3,13,8.6,21.5,21.4,25,1.9.5,4.2.9,5.4,2.2,1.6,1.8,2.8,4.5,2.9,6.8,0,1.3-2.3,3.4-4,4-9.1,3.4-18.2,3.1-27.1-.6-18.5-7.7-29.1-22.5-35.6-40.7-7.1-19.8-7.2-40.3-5.1-60.9,2.3-22.6,8.9-43.8,20.4-63.3,16.6-28.2,38.9-49.8,71-59.7,1.6-.5,3.2-1,5.6-1.7-11.9-1.8-23-2.9-34-5.1-20.8-4.1-40.8-10.5-58-23.4-22.3-16.7-34.9-39.5-41-66.3-5-21.9-3.5-43.9-.4-65.9,2.7-19,6-37.9,8.1-57,2.4-20.8-3.2-40.3-11.4-59.3-5.4-12.4-11.3-24.8-14.5-37.8-3.8-15.8,1.6-31.9,19-35.6,8.2-1.7,16.9-2.1,25.3-1.3,36.8,3.5,71.3,15.3,104.3,31.5,41.9,20.6,76.6,50.1,105.6,86.5,33.5,41.9,56.3,89.2,69.1,141.2,4.2,17.1,6.4,34.9,7.7,52.5,1.3,18.4,1.3,37,0,55.3Z" style="fill:url(#b); stroke-width:0px;"/><path d="M744,443.8c-.5-.9-1.1-1.7-1.6-2.5-6.9-10.6-14.1-20.9-20.5-31.8-4-6.8-7.3-14.6-4.4-22.7,6.1-16.9,6.9-34,3.6-51.4-7.3-38.9-29.2-67-64.2-84.7-21.9-11.1-45.9-15.1-70.3-15.8-32.3-.9-62.6,6.2-89.5,24.6-21.3,14.6-36.7,34.5-48.9,57-.8,1.5-.4,4.5.6,6.2,25.6,44,38.3,92,43,142.3,2.1,22.5,1.7,45.2-.6,67.8-2.6,24.9-7.3,49.4-15.1,73.2-8.6,26.3-18.1,52.4-27.2,78.5,0,0,0,0,0,0,4.7,3.2,11.4,1,14,.1,23.7-7.9,41.3-30.6,41.3-30.6,9.8-11.6,17.2-25.3,22-41.3,6.7-21.9,8.5-44.4,11.9-66.8,2.6-17.1,5.4-34.3,9.7-51.1,7.7-29.8,25.4-54,46.4-76,13.8-14.4,27.9-28.6,40.7-43.9,23.1-27.6,33.8-59.5,30.4-95.7.2,0,.4,0,.5,0,2.9,3.8,5.9,7.6,8.6,11.5,19.2,27.4,32,56.9,29.3,91.3-1.1,14.6,2.7,27.9,10.1,40.2,6,9.9,11.8,19.9,17.9,29.8,2,3.2,1.5,5.7-1.7,7.5-7.4,4.1-14.8,8.1-22.4,11.8-1.8.9-4.3.7-6.8,1,3.9,5.4,7.9,11.2,12.3,16.8,2.4,3.1,2.2,5.7-.8,7.5-4.3,2.6-8.9,5-13.5,6.9-4.8,2-9.8,3.3-15.3,5.1,6.9,3.1,13.1,5.5,18.9,8.6,2.8,1.5,4.9,4.3,7.3,6.6-2.3,2.1-4.4,4.7-7.1,6.3-4.9,2.9-7.2,6.7-6.1,12.3.6,3.1,1.3,6.1,1.9,9.2,2,9.3-2.6,16.8-11.8,17.8-4.9.6-10.2.9-14.9-.2-24.2-5.3-48.3-11.2-71.1-21.2-14.9-6.5-29.8-13.2-42.8-24.3,1.5,18.2,14.2,26.6,27.6,34.4-38.7,10.7-49.1,62.7-34,90.5,0-6.1-.5-12.1.2-17.9.7-5.9,2.1-11.7,4-17.3,8.1-24.2,28.5-43.6,58.5-41.8,10.1.6,20.2,3.1,30.1,5.5,12.7,3,25.1,7.6,38.5,6.4,7.8-.7,15-2.6,21.3-7.3,5.9-4.4,9.8-10,8.4-17.9-.6-3.6-1.2-7.2-2.2-10.7-1.5-5.6-.5-9.8,4.7-13.3,6.5-4.4,7.8-10.2,3.8-16.3-2.9-4.3-1.6-7,1.6-9.7,5.8-4.9,6.7-10.7,3.3-17.3-.6-1.2-1-2.5-1.5-3.8-1.3-3.3,0-7,3.2-8.7,3.8-2.1,7.6-4.2,11.2-6.4,12.4-7.7,14.4-15.9,7-28.4Z" style="fill:url(#c); stroke-width:0px;"/><polygon points="399.3 873.2 409 873.2 409 898 411.7 898 411.7 873.2 421.3 873.2 421.3 870.9 399.3 870.9 399.3 873.2" style="fill:#7f055f; stroke-width:0px;"/><path d="M442.1,880.2c-.5-.8-1.1-1.4-2-1.8-.8-.4-1.8-.6-2.9-.6s-3.1.4-4.5,1.3c-1.4.9-2.5,2-3.3,3.5v-12.6h-2.6v27.9h2.6v-12.1c.3-1.1.8-2.1,1.5-2.9.7-.8,1.6-1.5,2.5-2s1.9-.7,2.9-.7c1.5,0,2.6.6,3.4,1.7.8,1.1,1.2,2.8,1.2,5v11.1h2.6v-11.6c0-1.3-.1-2.5-.3-3.5-.2-1-.6-1.9-1.1-2.7Z" style="fill:#7f055f; stroke-width:0px;"/><path d="M464.7,879.3c-1.5-.9-3.2-1.4-5.1-1.4s-3.6.5-5.1,1.4c-1.5.9-2.7,2.2-3.5,3.7-.9,1.5-1.3,3.2-1.3,5.1s.2,2.8.7,4c.5,1.2,1.2,2.3,2.1,3.3.9,1,2,1.7,3.2,2.2,1.2.5,2.5.8,4,.8s2.5-.2,3.7-.6c1.1-.4,2.1-1,3-1.8.8-.8,1.5-1.6,1.9-2.6l-2.3-.6c-.5,1.1-1.3,1.9-2.4,2.6-1.2.7-2.4,1-3.7,1s-2.5-.3-3.5-1c-1.1-.6-2-1.5-2.6-2.6s-1.1-2.4-1.2-3.8h17.1c0-.1,0-.2,0-.4v-.6c0-1.8-.4-3.5-1.3-5-.8-1.5-2-2.8-3.5-3.7ZM452.3,887.2c.1-1.4.5-2.7,1.2-3.8.7-1.1,1.5-2,2.6-2.6s2.3-.9,3.6-.9,2.5.3,3.6.9,2,1.5,2.6,2.6,1.1,2.3,1.2,3.8h-14.7Z" style="fill:#7f055f; stroke-width:0px;"/><path d="M503.8,881.1c-.8-1-1.7-1.8-2.9-2.3s-2.4-.9-3.8-.9-3.1.4-4.4,1.2c-1.2.8-2.3,1.9-3.2,3.3v-12.3h-2.6v27.9h2.3v-3.9c.7,1.2,1.8,2.2,3.1,3,1.3.8,2.8,1.2,4.3,1.2s2.6-.3,3.7-.8,2.1-1.3,3-2.2,1.5-2,2-3.3c.5-1.2.7-2.5.7-3.9s-.2-2.6-.6-3.8c-.4-1.2-1-2.3-1.8-3.3ZM503.1,891.1c-.4.9-.9,1.8-1.5,2.6s-1.5,1.4-2.4,1.8c-.9.4-1.9.6-3,.6s-1.4-.1-2.1-.4c-.7-.3-1.4-.6-2-1s-1.2-.9-1.6-1.5c-.4-.6-.7-1.2-.8-1.9v-6.2c.4-.9,1-1.7,1.7-2.4.7-.7,1.5-1.3,2.3-1.8s1.8-.7,2.8-.7,2.7.4,3.7,1.1c1.1.7,1.9,1.7,2.5,3,.6,1.2.9,2.5.9,3.9s-.2,2-.5,2.9Z" style="fill:#7f055f; stroke-width:0px;"/><path d="M526.3,879.3c-1.5-.9-3.2-1.4-5.1-1.4s-3.6.5-5.1,1.4c-1.5.9-2.7,2.2-3.5,3.7-.9,1.5-1.3,3.2-1.3,5.1s.2,2.8.7,4c.5,1.2,1.2,2.3,2.1,3.3.9,1,2,1.7,3.2,2.2,1.2.5,2.5.8,4,.8s2.5-.2,3.7-.6c1.1-.4,2.1-1,3-1.8.8-.8,1.5-1.6,1.9-2.6l-2.3-.6c-.5,1.1-1.3,1.9-2.4,2.6-1.2.7-2.4,1-3.7,1s-2.5-.3-3.5-1c-1.1-.6-2-1.5-2.6-2.6s-1.1-2.4-1.2-3.8h17.1c0-.1,0-.2,0-.4v-.6c0-1.8-.4-3.5-1.3-5-.8-1.5-2-2.8-3.5-3.7ZM513.8,887.2c.1-1.4.5-2.7,1.2-3.8.7-1.1,1.5-2,2.6-2.6s2.3-.9,3.6-.9,2.5.3,3.6.9,2,1.5,2.6,2.6,1.1,2.3,1.2,3.8h-14.7Z" style="fill:#7f055f; stroke-width:0px;"/><path d="M552.1,894.9v-9.2c0-2.5-.7-4.4-2.1-5.8-1.4-1.4-3.4-2.1-5.8-2.1s-2.6.2-3.8.7c-1.2.4-2.5,1.1-3.8,2l1,1.8c1.1-.8,2.2-1.3,3.2-1.7s2.1-.6,3.2-.6c1.8,0,3.1.5,4.1,1.5,1,1,1.5,2.3,1.5,4v1.7c-.8-.3-1.7-.5-2.8-.7-1-.2-2.1-.2-3-.2-1.7,0-3.1.2-4.4.7-1.3.5-2.3,1.2-3,2.1-.7.9-1.1,2-1.1,3.2s.3,2.1.9,3.1c.6.9,1.4,1.7,2.4,2.2s2.2.8,3.5.8,2.9-.3,4.4-.9c1.4-.6,2.6-1.5,3.5-2.7v1.5c0,.4.2.8.6,1.2.3.4.8.6,1.5.6.1,0,.3,0,.5,0,.2,0,.4,0,.7,0v-2.1c-.3,0-.6-.1-.7-.3-.2-.2-.2-.4-.2-.8ZM549.5,891.9c0,.3,0,.5-.2.9-.2.3-.4.7-.7,1-.6.8-1.4,1.4-2.5,1.9-1.1.5-2.3.7-3.5.7s-1.9-.2-2.6-.6c-.7-.4-1.3-.9-1.7-1.6-.4-.6-.6-1.3-.6-2.1,0-1.3.6-2.3,1.7-3,1.1-.7,2.7-1.1,4.5-1.1s1.9,0,2.8.3c.9.2,1.8.4,2.7.8v2.9Z" style="fill:#7f055f; stroke-width:0px;"/><path d="M576.5,894.9v-16.7h-2.6v12.5c-.4,1.1-.9,2-1.7,2.9-.7.8-1.6,1.5-2.5,1.9-1,.4-1.9.7-3,.7-1.5,0-2.7-.6-3.5-1.7-.8-1.1-1.2-2.8-1.2-5.1v-11.2h-2.6v11.7c0,2.8.5,5,1.6,6.4,1.1,1.4,2.7,2.2,4.7,2.2s3.3-.4,4.8-1.3,2.7-2.1,3.5-3.6v2.7c.1.5.3.9.7,1.3.4.4.8.6,1.3.6.2,0,.3,0,.5,0,.2,0,.4,0,.7,0v-2.1c-.3,0-.5-.1-.7-.3s-.2-.4-.2-.8Z" style="fill:#7f055f; stroke-width:0px;"/><path d="M592.1,895.6c-.6.2-1.2.4-2,.4s-1.2-.2-1.6-.5c-.5-.4-.7-.9-.8-1.6v-13.6h4.6v-2.1h-4.6v-6.7h-2.6v6.7h-2.8v2.1h2.8v14.3c0,.8.2,1.6.6,2.1.4.6.9,1,1.5,1.3s1.3.4,2.1.4,1.4,0,2-.2c.6-.2,1.1-.3,1.6-.5.4-.2.8-.3,1-.4l-.7-2.1c-.1.1-.5.3-1.1.5Z" style="fill:#7f055f; stroke-width:0px;"/><path d="M606.8,895.4l-7.3-17.2h-2.8l8.7,19.9c-.7,1.7-1.2,2.9-1.6,3.8s-.7,1.4-1,1.8c-.3.3-.6.5-.9.5-.2,0-.4,0-.7,0-.3,0-.7,0-1,0v2.3c.3,0,.6,0,.9,0,.2,0,.5,0,.7,0,.8,0,1.4-.2,1.9-.4.5-.2,1-.6,1.3-1,.4-.4.6-.9.8-1.4l10.3-25.6h-2.6l-6.7,17.2Z" style="fill:#7f055f; stroke-width:0px;"/><path d="M639.1,869.7c-1.2,0-2.2.3-3.1.9-.9.6-1.6,1.5-2,2.7-.5,1.2-.7,2.6-.7,4.2v.5h-2.8v2.1h2.8v17.9h2.6v-17.9h5.5v-2.1h-5.5v-.6c0-1.8.3-3.1,1-4.1.7-.9,1.6-1.4,2.8-1.4s1.1,0,1.6.2c.5.2,1,.4,1.3.7l.8-1.9c-.5-.4-1.2-.7-1.9-.9-.7-.2-1.5-.3-2.3-.3Z" style="fill:#7f055f; stroke-width:0px;"/><path d="M661.9,880.9c-.9-1-1.9-1.7-3.1-2.2-1.2-.5-2.5-.8-3.9-.8s-2.7.3-4,.8c-1.2.5-2.3,1.3-3.2,2.2-.9,1-1.6,2-2.1,3.3-.5,1.2-.7,2.6-.7,4s.2,2.7.7,3.9c.5,1.2,1.2,2.3,2,3.3s1.9,1.7,3.1,2.2,2.5.8,4,.8,2.7-.3,4-.8c1.2-.5,2.3-1.3,3.1-2.2s1.6-2,2-3.3c.5-1.2.7-2.5.7-3.9s-.2-2.7-.7-4c-.5-1.2-1.2-2.3-2.1-3.3ZM661,892.1c-.7,1.2-1.5,2.2-2.6,2.9s-2.3,1.1-3.6,1.1-2.5-.3-3.6-1-2-1.6-2.6-2.8c-.7-1.2-1-2.5-1-4s.3-2.8,1-4,1.5-2.2,2.6-2.9c1.1-.7,2.3-1.1,3.6-1.1s2.5.4,3.6,1.1,2,1.7,2.6,2.9c.7,1.2,1,2.5,1,4s-.3,2.8-1,4Z" style="fill:#7f055f; stroke-width:0px;"/><path d="M679.7,878c-1.3.1-2.5.6-3.6,1.5-1.1.9-2,2-2.7,3.4v-4.7h-2.4v19.9h2.6v-12.4c.5-1.6,1.5-2.9,2.8-3.8s2.8-1.4,4.6-1.5v-2.4c-.1,0-.3,0-.5,0s-.4,0-.7,0Z" style="fill:#7f055f; stroke-width:0px;"/><path d="M703.8,895.4l-7.3-17.2h-2.8l8.7,19.9c-.7,1.7-1.2,2.9-1.6,3.8s-.7,1.4-1,1.8c-.3.3-.6.5-.9.5-.2,0-.4,0-.7,0-.3,0-.7,0-1,0v2.3c.3,0,.6,0,.9,0,.2,0,.5,0,.7,0,.8,0,1.4-.2,1.9-.4.5-.2,1-.6,1.3-1,.4-.4.6-.9.8-1.4l10.3-25.6h-2.6l-6.7,17.2Z" style="fill:#7f055f; stroke-width:0px;"/><path d="M733.6,880.9c-.9-1-1.9-1.7-3.1-2.2-1.2-.5-2.5-.8-3.9-.8s-2.7.3-4,.8c-1.2.5-2.3,1.3-3.2,2.2-.9,1-1.6,2-2.1,3.3-.5,1.2-.7,2.6-.7,4s.2,2.7.7,3.9c.5,1.2,1.2,2.3,2,3.3s1.9,1.7,3.1,2.2,2.5.8,4,.8,2.7-.3,4-.8c1.2-.5,2.3-1.3,3.1-2.2s1.6-2,2-3.3c.5-1.2.7-2.5.7-3.9s-.2-2.7-.7-4c-.5-1.2-1.2-2.3-2.1-3.3ZM732.7,892.1c-.7,1.2-1.5,2.2-2.6,2.9s-2.3,1.1-3.6,1.1-2.5-.3-3.6-1-2-1.6-2.6-2.8c-.7-1.2-1-2.5-1-4s.3-2.8,1-4,1.5-2.2,2.6-2.9c1.1-.7,2.3-1.1,3.6-1.1s2.5.4,3.6,1.1,2,1.7,2.6,2.9c.7,1.2,1,2.5,1,4s-.3,2.8-1,4Z" style="fill:#7f055f; stroke-width:0px;"/><path d="M759.5,894.9v-16.7h-2.6v12.5c-.4,1.1-.9,2-1.7,2.9-.7.8-1.6,1.5-2.5,1.9-1,.4-1.9.7-3,.7-1.5,0-2.7-.6-3.5-1.7-.8-1.1-1.2-2.8-1.2-5.1v-11.2h-2.6v11.7c0,2.8.5,5,1.6,6.4,1.1,1.4,2.7,2.2,4.7,2.2s3.3-.4,4.8-1.3,2.7-2.1,3.5-3.6v2.7c.1.5.3.9.7,1.3.4.4.8.6,1.3.6.2,0,.3,0,.5,0,.2,0,.4,0,.7,0v-2.1c-.3,0-.5-.1-.7-.3s-.2-.4-.2-.8Z" style="fill:#7f055f; stroke-width:0px;"/><path d="M794.2,894.9v-9.2c0-2.5-.7-4.4-2.1-5.8-1.4-1.4-3.4-2.1-5.8-2.1s-2.6.2-3.8.7c-1.2.4-2.5,1.1-3.8,2l1,1.8c1.1-.8,2.2-1.3,3.2-1.7s2.1-.6,3.2-.6c1.8,0,3.1.5,4.1,1.5,1,1,1.5,2.3,1.5,4v1.7c-.8-.3-1.7-.5-2.8-.7-1-.2-2.1-.2-3-.2-1.7,0-3.1.2-4.4.7-1.3.5-2.3,1.2-3,2.1-.7.9-1.1,2-1.1,3.2s.3,2.1.9,3.1c.6.9,1.4,1.7,2.4,2.2s2.2.8,3.5.8,2.9-.3,4.4-.9c1.4-.6,2.6-1.5,3.5-2.7v1.5c0,.4.2.8.6,1.2.3.4.8.6,1.5.6.1,0,.3,0,.5,0,.2,0,.4,0,.7,0v-2.1c-.3,0-.6-.1-.7-.3-.2-.2-.2-.4-.2-.8ZM791.6,891.9c0,.3,0,.5-.2.9-.2.3-.4.7-.7,1-.6.8-1.4,1.4-2.5,1.9-1.1.5-2.3.7-3.5.7s-1.9-.2-2.6-.6c-.7-.4-1.3-.9-1.7-1.6-.4-.6-.6-1.3-.6-2.1,0-1.3.6-2.3,1.7-3,1.1-.7,2.7-1.1,4.5-1.1s1.9,0,2.8.3c.9.2,1.8.4,2.7.8v2.9Z" style="fill:#7f055f; stroke-width:0px;"/><path d="M817.1,880.2c-.5-.7-1.1-1.3-1.8-1.7-.8-.4-1.7-.6-2.8-.6s-2.3.2-3.4.6c-1.1.4-2.1,1-2.9,1.7-.9.7-1.6,1.6-2.1,2.5v-4.5h-2.4v19.9h2.6v-12.1c.3-1.1.9-2.1,1.6-2.9.8-.8,1.6-1.5,2.6-2,1-.5,2-.7,3-.7,1.5,0,2.6.5,3.3,1.6s1,2.8,1,5.1v11.1h2.6v-11.6c0-1.3-.1-2.5-.3-3.5-.2-1.1-.5-2-1-2.7Z" style="fill:#7f055f; stroke-width:0px;"/><path d="M843.8,894.9v-24.8h-2.6v12.3c-.7-1.2-1.8-2.3-3.1-3.2s-2.8-1.3-4.5-1.3-3.3.5-4.7,1.4-2.5,2.2-3.2,3.7c-.8,1.6-1.2,3.3-1.2,5.2s.2,2.6.7,3.8c.5,1.2,1.1,2.3,2,3.3.9,1,1.9,1.7,3,2.3,1.2.6,2.4.8,3.8.8s2.9-.4,4.2-1.1c1.4-.8,2.4-1.8,3.2-3.1v2c0,.5.2.9.6,1.3.4.4.9.6,1.4.7.3,0,.7,0,1.2,0v-2.1c-.3,0-.5-.1-.7-.3s-.2-.4-.2-.8ZM841.2,891.2c-.1.7-.4,1.3-.8,1.9-.4.6-1,1.1-1.6,1.6s-1.3.8-2,1c-.7.3-1.4.4-2.1.4-1,0-2-.2-2.9-.6-.9-.4-1.7-1-2.4-1.7s-1.2-1.6-1.6-2.6c-.4-1-.6-2-.6-3s.2-2,.5-3c.3-1,.8-1.8,1.4-2.6.6-.8,1.4-1.4,2.2-1.8.9-.4,1.8-.7,2.9-.7s1.8.2,2.8.7c.9.4,1.8,1,2.5,1.8.7.7,1.3,1.6,1.6,2.5v6.1Z" style="fill:#7f055f; stroke-width:0px;"/><path d="M891.6,880.2c-.5-.7-1.1-1.3-1.9-1.7-.8-.4-1.7-.6-2.8-.6-1.6,0-3.1.4-4.4,1.3-1.3.9-2.4,2.1-3.3,3.8-.2-1.5-.9-2.8-1.9-3.7-1-.9-2.4-1.4-4-1.4s-3.1.4-4.4,1.3-2.4,2-3.2,3.6v-4.5h-2.4v19.9h2.6v-12.1c.5-1.7,1.3-3.1,2.5-4.1,1.2-1,2.5-1.6,4-1.6s2.6.5,3.3,1.6c.7,1.1,1.1,2.8,1.1,5.1v11.1h2.6v-12.1c.5-1.7,1.3-3,2.5-4.1,1.2-1.1,2.5-1.6,4-1.6s2.5.5,3.3,1.6c.7,1.1,1.1,2.8,1.1,5.1v11.1h2.6v-11.6c0-1.3-.1-2.5-.3-3.5-.2-1.1-.6-2-1-2.7Z" style="fill:#7f055f; stroke-width:0px;"/><path d="M917.5,883c-.8-1.5-2-2.8-3.5-3.7-1.5-.9-3.2-1.4-5.1-1.4s-3.6.5-5.1,1.4c-1.5.9-2.7,2.2-3.5,3.7-.9,1.5-1.3,3.2-1.3,5.1s.2,2.8.7,4c.5,1.2,1.2,2.3,2.1,3.3.9,1,2,1.7,3.2,2.2,1.2.5,2.5.8,4,.8s2.5-.2,3.7-.6c1.1-.4,2.1-1,3-1.8.8-.8,1.5-1.6,1.9-2.6l-2.3-.6c-.5,1.1-1.3,1.9-2.4,2.6-1.2.7-2.4,1-3.7,1s-2.5-.3-3.5-1c-1.1-.6-2-1.5-2.6-2.6s-1.1-2.4-1.2-3.8h17.1c0-.1,0-.2,0-.4v-.6c0-1.8-.4-3.5-1.3-5ZM901.6,887.2c.1-1.4.5-2.7,1.2-3.8.7-1.1,1.5-2,2.6-2.6s2.3-.9,3.6-.9,2.5.3,3.6.9,2,1.5,2.6,2.6,1.1,2.3,1.2,3.8h-14.7Z" style="fill:#7f055f; stroke-width:0px;"/><path d="M483.8,472.5c-1.2-17.6-3.5-35.4-7.7-52.5-12.8-51.9-35.6-99.2-69.1-141.2-29-36.4-63.8-65.8-105.6-86.5-33-16.3-67.5-28.1-104.3-31.5-8.3-.8-17.1-.5-25.3,1.3-17.4,3.7-22.8,19.8-19,35.6,3.2,13,9.1,25.4,14.5,37.8,8.2,19,13.8,38.5,11.4,59.3-2.2,19.1-5.5,38-8.1,57-3.1,22-4.6,44,.4,65.9,6.1,26.7,18.7,49.6,41,66.3,17.2,12.9,37.2,19.3,58,23.4,10.9,2.2,22,3.3,34,5.1-2.4.7-4,1.2-5.6,1.7-32.1,9.9-54.5,31.5-71,59.7-11.5,19.5-18.1,40.7-20.4,63.3-2.1,20.7-2,41.1,5.1,60.9,6.5,18.2,17.1,33,35.6,40.7,8.9,3.7,18.1,4,27.1.6,1.7-.6,4-2.7,4-4,0-2.3-1.3-5-2.9-6.8-1.1-1.3-3.5-1.7-5.4-2.2-12.8-3.5-20.1-12-21.4-25-1.1-11,.6-21.8,5.5-32,10.6-22.2,27.8-39,46.6-53.8,28.8-22.7,60.6-40,98-43.5,9.3-.9,19,0,28.1,1.7,3.3.6,5.9,2.1,7.7,4.1,3.6,4.1,3,10.2,2.5,13.4-5.1,36.2-16.6,58.2-16.6,58.2,0,0-28.3,54.4-64,78-5.2,3.4-10.3,6.1-10.3,6.1-10.9,5.3-19.7,6-54.3,22.9-9.5,4.6-19.2,9.6-28.8,15-26.7,15.1-52.7,33.8-72.4,58.8-8.9,11.2-15.6,23.8-16.5,38.3-1.8,29.3,19.1,50.2,49.8,50.9,26.4.6,49-8.2,68.8-21.2,50.1-33,83.4-82.9,106.9-126.8,8.9-16.6,16.4-32.4,22.9-46,21.3-44.7,31.5-78.2,43.9-118.9,9.4-30.9,14.8-52.8,16.8-78.8,1.4-18.4,1.4-37,0-55.3ZM310.7,832.6c-13.6,21.8-29.9,41.4-50.5,57-3.3,2.5-6.9,4.6-10.6,6.4-8.3,4-16.5,4.7-24-1.7-7.9-6.7-10.4-15.4-8.5-25.4,3.1-16.1,12.1-29.1,22.4-41.1,20.9-24.3,45.5-42.9,73.4-56.3,12.2-5.9,25.1-10.8,38.5-14.7.4-.1,1,0,3.8.4-2.8,4.8-5.6,9.6-8.3,14.3-12,20.8-23.7,41.2-36.1,61.1ZM210.6,222.5c-2.8-11.5,5.2-20.1,16.8-17.5,42.5,9.3,80.4,28.2,114.1,55.6,7.3,5.9,14.2,12.4,21.3,18.7-11.4-1.9-15.1,2.7-16.7,14.9-.5,4.1,0,8.2,0,12.3-6-5.3-12-10.9-18.3-16.2-20.2-17.1-44.1-27.2-68.8-35.7-10.4-3.6-21-6.9-31.1-11.4-8.8-3.9-14.8-10.9-17.2-20.7ZM365,371.6c1.3,3.9,2.6,7.7,4.1,12.2-22-18.5-45.3-33.6-71.7-43.5-14.8-5.6-29.9-10.7-44.5-16.8-13.4-5.6-22.8-15.5-25.3-30.3-.8-5.2-.3-11,1.1-16.1,2.1-7.5,8.9-10.5,17.9-8.2,41,10.6,75.7,31,101.2,65.4,8.3,11.2,12.8,24.3,17.1,37.3ZM224.1,356.1c3.3-11,12.1-16.3,23.4-14.2,26,4.9,50.5,14,74.1,25.8,35.7,17.9,60,46.5,78.3,81,2.9,5.4,5.9,10.7,8.3,15.1-11.8-7.8-23.9-16.8-36.9-24.2-28.8-16.5-59.7-27.3-92.1-34.2-14.7-3.1-29.4-6.4-42.1-15-11.4-7.8-16.7-21.8-12.9-34.4ZM237.4,656.4c.9-10.6,1.4-20.6,2.8-30.5,3-21.4,9.9-41.5,23-59,17-22.8,39.9-36.3,67.8-40.4,39.3-5.7,74.6,4.3,105.9,28.7.9.7,1.7,1.5,3.1,2.8-87.1-7.3-150.9,31.6-202.7,98.3ZM381.7,504.8c-26.3-8.4-53.2-14.8-79.7-22.4-17.5-5-35.1-9.9-50-21.1-6.5-4.9-12.2-10.8-14.9-18.9-4.4-13,4-25.5,17.7-24.9,22.8,1,44.9,5.9,66.5,13,31.7,10.4,61,25.5,85.7,48.1,19.8,18.1,35.5,39.1,42.1,67.2-18.6-21.5-42.2-33.1-67.3-41.1ZM459.1,520.7c-5.9-15.5-15.9-28.4-25-41.8-26.4-38.9-44.8-81.5-59-126.1-4.1-12.9-8.5-25.7-12.3-38.7-1.4-4.7-2.8-10.9,1.8-13.9,4.8-3.1,9,2,12.5,5,18.6,15.9,32.1,35.8,43.6,57.1,17.1,31.5,27.2,65.4,34.2,100.3,3.9,19.1,5.4,38.4,4.2,58Z" style="fill:#7f055f; stroke-width:0px;"/><path d="M744,443.8c-.5-.9-1.1-1.7-1.6-2.5-6.9-10.6-14.1-20.9-20.5-31.8-4-6.8-7.3-14.6-4.4-22.7,6.1-16.9,6.9-34,3.6-51.4-7.3-38.9-29.2-67-64.2-84.7-21.9-11.1-45.9-15.1-70.3-15.8-32.3-.9-62.6,6.2-89.5,24.6-21.3,14.6-36.7,34.5-48.9,57-.8,1.5-.4,4.5.6,6.2,25.6,44,38.3,92,43,142.3,2.1,22.5,1.7,45.2-.6,67.8-2.6,24.9-7.3,49.4-15.1,73.2-8.6,26.3-18.1,52.4-27.2,78.5,0,0,0,0,0,0,4.7,3.2,11.4,1,14,.1,23.7-7.9,41.3-30.6,41.3-30.6,9.8-11.6,17.2-25.3,22-41.3,6.7-21.9,8.5-44.4,11.9-66.8,2.6-17.1,5.4-34.3,9.7-51.1,7.7-29.8,25.4-54,46.4-76,13.8-14.4,27.9-28.6,40.7-43.9,23.1-27.6,33.8-59.5,30.4-95.7.2,0,.4,0,.5,0,2.9,3.8,5.9,7.6,8.6,11.5,19.2,27.4,32,56.9,29.3,91.3-1.1,14.6,2.7,27.9,10.1,40.2,6,9.9,11.8,19.9,17.9,29.8,2,3.2,1.5,5.7-1.7,7.5-7.4,4.1-14.8,8.1-22.4,11.8-1.8.9-4.3.7-6.8,1,3.9,5.4,7.9,11.2,12.3,16.8,2.4,3.1,2.2,5.7-.8,7.5-4.3,2.6-8.9,5-13.5,6.9-4.8,2-9.8,3.3-15.3,5.1,6.9,3.1,13.1,5.5,18.9,8.6,2.8,1.5,4.9,4.3,7.3,6.6-2.3,2.1-4.4,4.7-7.1,6.3-4.9,2.9-7.2,6.7-6.1,12.3.6,3.1,1.3,6.1,1.9,9.2,2,9.3-2.6,16.8-11.8,17.8-4.9.6-10.2.9-14.9-.2-24.2-5.3-48.3-11.2-71.1-21.2-14.9-6.5-29.8-13.2-42.8-24.3,1.5,18.2,14.2,26.6,27.6,34.4-38.7,10.7-49.1,62.7-34,90.5,0-6.1-.5-12.1.2-17.9.7-5.9,2.1-11.7,4-17.3,8.1-24.2,28.5-43.6,58.5-41.8,10.1.6,20.2,3.1,30.1,5.5,12.7,3,25.1,7.6,38.5,6.4,7.8-.7,15-2.6,21.3-7.3,5.9-4.4,9.8-10,8.4-17.9-.6-3.6-1.2-7.2-2.2-10.7-1.5-5.6-.5-9.8,4.7-13.3,6.5-4.4,7.8-10.2,3.8-16.3-2.9-4.3-1.6-7,1.6-9.7,5.8-4.9,6.7-10.7,3.3-17.3-.6-1.2-1-2.5-1.5-3.8-1.3-3.3,0-7,3.2-8.7,3.8-2.1,7.6-4.2,11.2-6.4,12.4-7.7,14.4-15.9,7-28.4ZM569.5,388.6c-15.6,21.6-31.7,42.7-47,64.5-6.4,9.2-11.3,19.4-16.8,29,5.6-24.7,16.7-47.2,32-67.6,15-20,29.9-40,40.7-62.6,10.3-21.6,19.5-43.7,22-67.8.7-6.9.1-13.9.1-20.9.5,0,1,0,1.4-.1.7,5.7,1.6,11.3,2,17,2.7,40.6-11.1,76.1-34.4,108.4Z" style="fill:#7f055f; stroke-width:0px;"/><path d="M923,795.3c-.4.5-.7,1.3-1.3,1.9-8.3,8.4-16.3,17.1-25.1,25-6.2,5.7-13.9,9.2-22.8,8.2-11.4-1.3-19.8-19.4-13.6-29.2.5-.8,1.8-1.4,2.9-1.6,12.6-2.4,24-7.5,34.1-15.3,14.4-11,26.5-24,30.2-42.4,2.7-13.3-1.8-26.1-14-30.5-7.2-2.6-14.3-2.5-21.4-.2-16.3,5.2-28.6,15.9-38.6,29.4-13.7,18.6-23.1,38.9-23.6,62.6,0,1.1-.3,2.4-1,3.2-6.4,7.8-13.3,14.9-23,18.4-4.3,1.6-7.1-.1-6.8-4.7.3-4.1,1.3-8.1,2.5-12.1,7.5-25,15.7-49.7,22.6-74.8,4.6-16.5-7.4-27.3-24-23-9.2,2.4-16.3,7.5-22.2,14.1-1.9,2.1-3.7,4.3-5.4,6.7-4.3,6-8.1,12.4-11.6,17.7,0-6,.2-12.8,0-19.6-.4-12.3-11.9-20.8-23.8-18-9.8,2.2-16.6,8.7-22.8,16-4.2,4.9-7.9,10.2-11.9,15.4.2-2.8.9-5.3,1.6-7.8.8-2.7,1.5-5.4,2.2-8.1,2-7.8-.2-12.6-7.7-14.6-5.1-1.4-10.6-1.4-15.3-2-6.5,21.1-12.8,41.4-19,61.6-2,6.6-4,13.1-6,19.6-4.8,15.3-15.8,24.9-29.8,31.4-7,3.2-11.4-.3-9.7-7.9,2.2-10.1,4.7-20.2,8-30.1,1.4-4.4,2.9-8.7,4.4-13,5.1-14.5,10.4-29,15.4-43.6,3.3-9.7.3-15.2-9.8-17.6-3.9-1-8.2-.7-12.3-.5-1.2,0-3,1.6-3.3,2.8-2.6,8.2-4.5,16.6-7.3,24.7-4.1,11.6-8.4,23.1-13.4,34.3-5.7,12.6-12.3,24.7-20.7,36-4.8,6.4-11,12-17,17.4-1.5,1.4-5.2,1.5-7.2.7-1.4-.5-2.6-4-2.3-5.8,1.8-9.9,3.4-19.9,6.4-29.4,2-6.3,4-12.6,6-18.8,5.1-15.7,10.5-31.3,15.7-47,2.3-7,.9-10.2-5.7-13.2-5.5-2.6-11.4-3.7-17.4-1.7-1.6.5-3.5,2-4,3.4-6.4,19.5-12.8,39-19.1,58.5-1.8,5.4-3.5,10.9-5.2,16.4-3.7,11.5-8.2,22.7-7.9,35.1.4,14,13.3,24.5,27.1,22.1,8.2-1.4,14.6-5.6,20-11.3,7.5-7.9,14.5-16.2,20.9-23.5,0,3.4,0,8,0,12.6.2,8.8,5.9,17,14.4,19.6,11.5,3.4,21.6.3,30.1-8.1,4.8-4.8,9.4-9.8,15.1-15.8-1.1,3.6-1.9,5.9-2.6,8.2-2.5,8-.9,12,7.1,14.6,4.6,1.5,9.7,1.5,14.6,2.2,2.8.4,3.8-1.3,4.3-3.6,1.7-6.7,3.2-13.5,5.1-20.2,4.7-16.6,9.9-33.1,17.7-48.4,2.7-5.4,5.8-10.7,9.3-15.7,5.4-8,11-15.9,20.1-20.2,5.8-2.8,8.2-1.3,8,5,0,2.3-.2,4.7-.8,6.9-2.2,8-4.4,16.1-6.7,24.1-.8,2.6-1.6,5.2-2.4,7.8-5,15.4-10.6,30.6-15.5,46-3,9.6.2,14.9,10,17.3,3.2.8,6.6.6,9.8,1,2.8.3,3.8-.9,4.7-3.6,6.7-19.3,13.1-38.8,20.8-57.7,1.5-3.6,3.1-7.2,4.8-10.7,5.3-10.8,11.9-20.9,20.2-29.7,2.3-2.4,4.7-4.7,7.2-6.9,2.3-2,5.7-2.6,8.6-3.9.2,3.2,1.4,6.6.5,9.4-5.3,16.8-11.1,33.5-16.7,50.3-4,12-9.6,23.6-8.7,36.9.5,7.2,3.7,12.2,10.4,14.9,10.7,4.3,20.3,1.7,28.9-4.9,7.7-5.9,15-12.3,21.6-17.8,2.7,4.6,5,10.4,8.8,14.6,10.7,11.8,29.5,14.4,46.1,7.6,18.4-7.6,30.7-21.6,41.1-37.8,3.1-4.9,3-5.6-2.9-8.9ZM871,763.8c5.7-11.5,12.6-22.4,19.5-33.2,2-3.2,5.7-5.6,9-7.7,5-3,8.9-.6,9.5,5.4,1,10.3-2.2,19.7-7.1,28.4-8.2,14.3-18.8,26.1-35.1,31.4-.7.2-1.5.2-3.9.6,2.8-8.9,4.5-17.4,8.2-24.9Z" style="fill:#7f055f; stroke-width:0px;"/><path d="M518.9,731.6c-3.6-11.4-10.2-20.5-22.9-23.1-17.4-3.6-32,2.4-44.8,13.6-16.1,14-26.5,30.6-31.8,49.5-2.8,10-4.2,20.6-4.3,31.8,0,3.3-.3,6.7,0,10,1.7,13.8,8,24.5,21.5,29.7,11.4,4.4,22.6,2.6,33.3-2.1,27.5-11.9,45.2-40.8,50.5-69.5,2.6-14,2.1-28-1.6-39.9ZM493,771.6c-4.4,17.8-11.2,34.7-22.3,50.2-2.9,4.1-7.7,7.6-12.3,9.6-9,4-17.5-2-17.3-11.9.3-16.6,4.6-32.4,9.9-47.9.2-.6.4-1.3.6-1.9,5.5-15.8,12.3-30.8,25.1-42.3,2.1-1.8,4.5-3.5,7-4.8,7.1-3.5,13.1-.4,14.2,7.3.4,3,.4,6,.6,9-1.2,11.1-2.9,22-5.5,32.6Z" style="fill:#7f055f; stroke-width:0px;"/><path d="M691.6,379.4c-2,3.2-4.6,6-7,9.1-7.6-7.8-14.3-9.1-23.4-4.4-7.5,3.8-14.6,8.5-22.9,13.3,9.3-12.8,16.8-26.1,33.8-28,6.9-.8,13,2.1,18.6,5.9.9.6,1.5,3.3,1,4.2Z" style="fill:#7f055f; stroke-width:0px;"/><path d="M692.2,424c-7.6,9.2-35.2,9-47.1-11.6,4.6,1.5,8.9,3.1,13.3,4.2,2.5.7,5.2.8,7.8,1,5.5.6,8.8-2.3,10.7-7,1.2-3,2.2-6.1,4.3-9-.2,3.2-.5,6.3-.6,9.5-.3,9.3,2.1,11.9,11.7,12.8Z" style="fill:#7f055f; stroke-width:0px;"/></svg>